#!OML:ASF E:\Mandelcareful walks\Project 1\Capture day 1\Session 1\Subject1.ASF
:FULLY-SPECIFIED
:DEGREES
937
root 3.76581 15.8729 1.49644 2.09751 241.542 5.45572
lowerback 33.3769 3.83558 -3.85656
upperback 10.3219 1.83845 -0.900866
thorax -5.77499 0.170805 0.53909
lowerneck -28.9778 8.86925 2.80704
upperneck 23.8484 15.259 -13.2638
head 14.4574 4.80707 -2.59622
rclavicle -3.4191e-014 -5.1684e-015
rhumerus -14.0458 12.5526 -79.0075
rradius 62.9729
rwrist -22.7025
rhand -18.0778 -29.687
rfingers 7.12502
rthumb 8.19523 -59.5081
lclavicle -3.4191e-014 -5.1684e-015
lhumerus -12.7646 -17.9852 79.5788
lradius 62.7518
lwrist 27.9031
lhand -28.1488 -12.4857
lfingers 7.12502
lthumb -1.52966 17.4886
rfemur -44.4215 -7.00169 15.6245
rtibia 31.8139
rfoot 6.55326 6.46068
rtoes -28.0669
lfemur -34.0247 -7.57222 -18.2696
ltibia 55.9561
lfoot -26.1035 3.5341
ltoes 11.3117
938
root 3.70515 15.8962 1.37385 1.64579 242.562 5.83892
lowerback 33.4377 3.81676 -3.81405
upperback 10.2175 1.87588 -0.716398
thorax -5.91703 0.202244 0.693724
lowerneck -29.0793 8.64154 2.56531
upperneck 24.3402 14.963 -12.7945
head 14.5822 4.69094 -2.44568
rclavicle -6.55989e-014 -2.26615e-014
rhumerus -14.861 12.3943 -79.1166
rradius 63.1198
rwrist -22.9244
rhand -17.7657 -31.2485
rfingers 7.12502
rthumb 8.49647 -61.0576
lclavicle -6.55989e-014 -2.26615e-014
lhumerus -13.256 -19.0141 79.9263
lradius 62.2818
lwrist 27.7573
lhand -27.2646 -11.7923
lfingers 7.12502
lthumb -0.675657 18.1864
rfemur -43.8978 -5.83577 15.349
rtibia 31.3521
rfoot 6.33316 5.71914
rtoes -28.1214
lfemur -33.4041 -7.92881 -17.858
ltibia 55.5567
lfoot -26.1107 2.95341
ltoes 11.1295
939
root 3.62655 15.9246 1.26321 1.97641 244.03 5.26319
lowerback 33.4855 3.55395 -3.69918
upperback 10.2433 1.60592 -0.683864
thorax -5.8964 0.08273 0.75896
lowerneck -29.1278 8.39742 2.31404
upperneck 24.5856 14.6533 -12.4666
head 14.6079 4.56673 -2.34849
rclavicle 1.70955e-014 -2.26615e-014
rhumerus -15.5366 12.1576 -79.069
rradius 62.8265
rwrist -22.7611
rhand -17.7244 -30.5519
rfingers 7.12502
rthumb 8.53631 -60.3593
lclavicle 1.70955e-014 -2.26615e-014
lhumerus -13.5686 -20.051 80.243
lradius 61.7113
lwrist 27.4435
lhand -26.3492 -11.0012
lfingers 7.12502
lthumb 0.20847 18.9784
rfemur -43.2296 -5.97488 14.8544
rtibia 31.2115
rfoot 6.45423 5.59849
rtoes -25.5481
lfemur -32.5876 -8.84967 -18.0917
ltibia 55.1029
lfoot -26.2705 2.48501
ltoes 11.2305
940
root 3.59317 15.9268 1.15179 2.20107 245.861 5.22683
lowerback 33.6804 3.10564 -3.37405
upperback 10.0724 1.20717 -0.525858
thorax -6.1395 -0.0793487 0.885981
lowerneck -29.0766 8.1903 2.16151
upperneck 24.6293 14.4132 -12.4301
head 14.5782 4.45448 -2.36677
rclavicle 4.17448e-014 7.95139e-016
rhumerus -16.1305 12.0662 -79.062
rradius 62.6822
rwrist -23.0864
rhand -18.1945 -30.8602
rfingers 7.12502
rthumb 8.08258 -60.6857
lclavicle 4.17448e-014 7.95139e-016
lhumerus -13.9237 -21.0482 80.6185
lradius 61.1027
lwrist 27.2381
lhand -25.6368 -10.4804
lfingers 7.12502
lthumb 0.896495 19.4975
rfemur -43.1942 -6.07893 14.6288
rtibia 31.402
rfoot 6.71247 4.68107
rtoes -21.2909
lfemur -32.579 -9.85577 -17.8492
ltibia 54.7574
lfoot -26.1163 1.89774
ltoes 10.7636
941
root 3.53778 15.9384 1.03637 2.86365 247.216 4.62471
lowerback 33.7386 2.89783 -3.38414
upperback 9.96881 0.986884 -0.440417
thorax -6.26755 -0.166868 1.05548
lowerneck -29.2075 8.0199 2.13123
upperneck 24.8728 14.2252 -12.4522
head 14.6955 4.34497 -2.41784
rclavicle -4.05521e-014 2.78299e-015
rhumerus -16.5124 11.8725 -79.1244
rradius 62.1574
rwrist -23.2129
rhand -18.5134 -30.0489
rfingers 7.12502
rthumb 7.77483 -59.886
lclavicle -4.05521e-014 2.78299e-015
lhumerus -14.3465 -21.9811 81.0193
lradius 60.5588
lwrist 26.9453
lhand -25.0301 -9.75884
lfingers 7.12502
lthumb 1.48253 20.2158
rfemur -43.0903 -6.22164 14.3956
rtibia 31.9055
rfoot 6.67824 3.71336
rtoes -17.4648
lfemur -32.248 -10.5952 -17.8938
ltibia 54.3805
lfoot -26.2006 1.46797
ltoes 10.4059
942
root 3.46584 15.9532 0.914562 3.56477 248.228 3.92649
lowerback 33.7171 2.85714 -3.51069
upperback 9.91187 0.929673 -0.374457
thorax -6.32166 -0.183213 1.21061
lowerneck -29.5302 7.77877 1.87534
upperneck 25.3634 13.9305 -12.0162
head 14.8786 4.2152 -2.27147
rclavicle 4.21423e-014 0
rhumerus -16.8804 11.6929 -79.1808
rradius 61.6794
rwrist -23.0553
rhand -18.8964 -29.9095
rfingers 7.12502
rthumb 7.40511 -59.7599
lclavicle 4.21423e-014 0
lhumerus -14.7648 -22.8656 81.4487
lradius 59.9043
lwrist 26.5906
lhand -24.5698 -9.30739
lfingers 7.12502
lthumb 1.92707 20.6637
rfemur -42.8502 -6.22982 14.2515
rtibia 32.6312
rfoot 5.84916 2.33345
rtoes -15.4779
lfemur -31.7695 -11.1319 -17.9444
ltibia 54.0344
lfoot -26.444 1.00489
ltoes 10.7608
943
root 3.40262 15.961 0.794767 4.1123 249.14 3.45213
lowerback 33.88 2.80508 -3.53829
upperback 9.72972 0.891583 -0.285474
thorax -6.57973 -0.181945 1.32924
lowerneck -29.6203 7.56483 1.55777
upperneck 25.7315 13.7015 -11.6642
head 14.9752 4.11166 -2.13547
rclavicle 4.37326e-015 -1.07344e-014
rhumerus -17.4468 11.7491 -79.2495
rradius 61.2519
rwrist -23.0319
rhand -19.3852 -29.7879
rfingers 7.12502
rthumb 6.93337 -59.6544
lclavicle 4.37326e-015 -1.07344e-014
lhumerus -15.3652 -23.5538 82.0238
lradius 59.0306
lwrist 26.1948
lhand -24.2586 -10.0971
lfingers 7.12502
lthumb 2.22762 19.871
rfemur -42.6617 -6.20918 14.2763
rtibia 33.3869
rfoot 4.47317 1.15859
rtoes -14.5996
lfemur -31.4385 -11.5279 -17.8364
ltibia 53.6994
lfoot -26.5772 0.540648
ltoes 10.8703
944
root 3.33882 15.9785 0.67489 4.84718 250.273 2.71055
lowerback 34.2869 2.64708 -3.49695
upperback 9.45694 0.738819 -0.182528
thorax -7.02077 -0.228434 1.46535
lowerneck -29.4832 7.43428 1.44357
upperneck 26.0193 13.6185 -11.7445
head 15.072 4.0354 -2.1803
rclavicle -4.41302e-014 5.56597e-015
rhumerus -18.1103 11.9045 -79.3119
rradius 60.8441
rwrist -23.1845
rhand -19.7092 -29.6479
rfingers 7.12502
rthumb 6.62054 -59.5245
lclavicle -4.41302e-014 5.56597e-015
lhumerus -16.1109 -24.2345 82.6696
lradius 58.0688
lwrist 25.9622
lhand -23.9517 -10.8946
lfingers 7.12502
lthumb 2.52399 19.0702
rfemur -42.2855 -6.59139 14.2979
rtibia 34.0842
rfoot 3.22425 0.87674
rtoes -12.1454
lfemur -31.0314 -12.1741 -17.7886
ltibia 53.3293
lfoot -26.6234 0.20257
ltoes 10.1746
945
root 3.27163 15.9894 0.548416 5.74066 251.425 1.76719
lowerback 34.7486 2.52247 -3.47725
upperback 9.19599 0.612243 -0.101074
thorax -7.46918 -0.263782 1.58252
lowerneck -29.424 7.27417 1.32026
upperneck 26.3662 13.4317 -11.5843
head 15.1728 3.94745 -2.14714
rclavicle -7.55382e-015 -2.3059e-014
rhumerus -18.6811 11.9379 -79.4535
rradius 60.2853
rwrist -23.4328
rhand -20.0979 -29.29
rfingers 7.12502
rthumb 6.24531 -59.1779
lclavicle -7.55382e-015 -2.3059e-014
lhumerus -16.7195 -25.0316 83.1918
lradius 57.0124
lwrist 25.7475
lhand -23.5066 -10.7902
lfingers 7.12502
lthumb 2.95383 19.1691
rfemur -41.6396 -6.7337 13.9553
rtibia 34.6302
rfoot 2.05413 0.411221
rtoes -4.02592
lfemur -30.575 -12.961 -17.7594
ltibia 53.0171
lfoot -26.6657 -0.0308494
ltoes 9.40913
946
root 3.19831 16.0103 0.422888 5.95247 252.406 1.5637
lowerback 35.1028 2.40694 -3.18778
upperback 8.97339 0.580211 -0.0455513
thorax -7.7149 -0.263731 1.48892
lowerneck -29.5441 7.04315 1.12612
upperneck 26.6974 13.0989 -11.1729
head 15.2573 3.827 -2.02632
rclavicle -1.55052e-014 1.63003e-014
rhumerus -18.9556 11.7274 -79.6324
rradius 59.2404
rwrist -23.1903
rhand -20.2436 -28.5822
rfingers 7.12502
rthumb 6.10467 -58.4743
lclavicle -1.55052e-014 1.63003e-014
lhumerus -17.2006 -25.4377 83.6538
lradius 56.0186
lwrist 24.9478
lhand -23.1946 -10.1904
lfingers 7.12502
lthumb 3.25522 19.7645
rfemur -41.1995 -7.02949 14.1141
rtibia 35.0759
rfoot 0.952872 0.115077
rtoes -1.19242
lfemur -30.0902 -13.5896 -17.4486
ltibia 52.7021
lfoot -26.7271 -0.437247
ltoes 9.3553
947
root 3.11756 16.0259 0.296736 5.75823 252.984 1.8508
lowerback 34.9731 2.36937 -2.808
upperback 9.01829 0.677168 -0.0658206
thorax -7.61902 -0.216034 1.23251
lowerneck -29.8013 6.81041 0.955892
upperneck 26.988 12.7696 -10.8122
head 15.3632 3.70088 -1.9255
rclavicle -1.03368e-014 2.32578e-014
rhumerus -18.8826 11.3567 -79.7556
rradius 57.8331
rwrist -22.4286
rhand -19.6839 -27.5589
rfingers 7.12502
rthumb 6.64499 -57.4346
lclavicle -1.03368e-014 2.32578e-014
lhumerus -17.6175 -25.2301 84.0645
lradius 55.2987
lwrist 23.9614
lhand -23.1425 -9.2302
lfingers 7.12502
lthumb 3.30547 20.7239
rfemur -40.9373 -7.10039 14.4891
rtibia 35.4812
rfoot 0.0791411 -0.201663
rtoes -0.824849
lfemur -29.703 -13.6878 -16.9969
ltibia 52.5297
lfoot -26.8893 -0.995861
ltoes 8.9739
948
root 3.03773 16.0267 0.170185 6.45435 253.392 1.23523
lowerback 34.6688 2.3923 -2.67863
upperback 9.17368 0.754987 -0.207073
thorax -7.46251 -0.176955 0.995666
lowerneck -29.9581 6.68611 0.978132
upperneck 27.1983 12.5541 -10.6311
head 15.4562 3.62496 -1.90447
rclavicle 2.66371e-014 3.79679e-014
rhumerus -18.6633 11.1546 -79.9548
rradius 56.3844
rwrist -22.0377
rhand -18.9328 -27.0121
rfingers 7.12502
rthumb 7.36998 -56.8637
lclavicle 2.66371e-014 3.79679e-014
lhumerus -18.0742 -24.9887 84.3246
lradius 54.7352
lwrist 23.4453
lhand -22.9697 -8.15337
lfingers 7.12502
lthumb 3.47239 21.7981
rfemur -40.761 -7.17099 14.5955
rtibia 35.9425
rfoot -0.762369 -0.320471
rtoes -0.32583
lfemur -29.3244 -13.6778 -16.8652
ltibia 52.364
lfoot -27.1145 -1.29873
ltoes 7.64883
949
root 2.98188 16.0045 0.0392901 8.00404 254.223 0.122713
lowerback 34.4119 2.23853 -2.62826
upperback 9.0087 0.626777 -0.302793
thorax -7.54351 -0.212908 0.915179
lowerneck -29.8701 6.66637 1.18411
upperneck 27.3046 12.4727 -10.7259
head 15.5053 3.59668 -2.00063
rclavicle -2.8625e-014 -1.94809e-014
rhumerus -18.5743 11.2747 -80.25
rradius 55.008
rwrist -22.2157
rhand -18.7381 -26.9588
rfingers 7.12502
rthumb 7.55799 -56.8038
lclavicle -2.8625e-014 -1.94809e-014
lhumerus -18.6398 -24.8082 84.5425
lradius 54.0534
lwrist 23.2562
lhand -22.7309 -7.68492
lfingers 7.12502
lthumb 3.70298 22.2627
rfemur -40.87 -7.39443 14.4633
rtibia 36.6398
rfoot -2.13731 -0.514942
rtoes 3.92019
lfemur -29.599 -13.9554 -16.6156
ltibia 52.3119
lfoot -27.1804 -1.72086
ltoes 6.51792
950
root 2.90091 16.0126 -0.0885181 8.85422 254.795 -0.631002
lowerback 34.3715 2.1774 -2.53731
upperback 8.94241 0.596888 -0.355839
thorax -7.59898 -0.216522 0.821607
lowerneck -29.7222 6.66982 1.35647
upperneck 27.2429 12.4343 -10.8653
head 15.47 3.58884 -2.09691
rclavicle -1.82882e-014 -5.32743e-014
rhumerus -18.5159 11.3933 -80.5282
rradius 53.7936
rwrist -22.3463
rhand -19.3315 -26.3958
rfingers 7.12502
rthumb 6.98515 -56.2605
lclavicle -1.82882e-014 -5.32743e-014
lhumerus -19.1373 -24.4191 84.8153
lradius 53.1001
lwrist 23.0219
lhand -22.9186 -8.42014
lfingers 7.12502
lthumb 3.52176 21.5305
rfemur -40.8413 -7.73535 14.6054
rtibia 37.3448
rfoot -3.14021 -0.38778
rtoes 4.50791
lfemur -29.1954 -14.306 -16.426
ltibia 52.0593
lfoot -27.3369 -1.97389
ltoes 6.07379
